<?xml version="1.0" encoding="UTF-8"?>
<svg version="1.1" xmlns="http://www.w3.org/2000/svg" width="500" height="500">
<path d="M0 0 C0.99980349 -0.00297112 1.99960698 -0.00594224 3.02970755 -0.0090034 C6.38363389 -0.01768281 9.7375245 -0.019198 13.09146118 -0.02069092 C15.49460425 -0.02531955 17.89774658 -0.03034427 20.30088806 -0.03573608 C26.8318446 -0.04885591 33.36279371 -0.05534078 39.8937602 -0.05974674 C43.97287215 -0.0625118 48.05198173 -0.06674957 52.13109207 -0.07125092 C63.42897836 -0.08343983 74.72686276 -0.09374068 86.02475548 -0.09712601 C86.7473837 -0.09734557 87.47001191 -0.09756514 88.21453796 -0.09779136 C89.30103827 -0.09811878 89.30103827 -0.09811878 90.40948808 -0.09845281 C91.87720958 -0.09889627 93.34493109 -0.09934283 94.81265259 -0.09979248 C95.904708 -0.10012463 95.904708 -0.10012463 97.01882513 -0.10046348 C108.81845086 -0.10441243 120.61801488 -0.1218711 132.41761677 -0.145152 C144.53719432 -0.16887096 156.6567409 -0.18132806 168.77634203 -0.18249393 C175.5790618 -0.18341025 182.38170108 -0.18915203 189.18439865 -0.20731354 C195.581645 -0.22433278 201.97877933 -0.2259631 208.37604332 -0.21717453 C210.72421998 -0.21640273 213.07240478 -0.2207656 215.42056084 -0.23063278 C218.62569028 -0.24331158 221.83027491 -0.23749728 225.03540039 -0.22705078 C226.42962316 -0.23913539 226.42962316 -0.23913539 227.85201204 -0.25146413 C233.36219916 -0.20945109 237.34523957 0.32968082 242.14468384 3.14044189 C245.44177153 7.30048486 245.56951081 11.15920782 245.52220726 16.26928711 C245.52656758 17.08735446 245.5309279 17.90542182 245.53542036 18.74827909 C245.54640591 21.50123736 245.53593924 24.25369786 245.52563477 27.00665283 C245.52909002 28.99556104 245.53385369 30.98446733 245.5398165 32.9733696 C245.55237428 38.44803021 245.5461344 43.92253454 245.53685784 49.39719582 C245.53008723 55.29774679 245.54053869 61.19827034 245.54879761 67.09881592 C245.5613857 77.99293533 245.56026796 88.88700087 245.5520632 99.78112316 C245.54452102 109.8447084 245.54254433 119.90827531 245.54613113 129.97186279 C245.54647487 130.97258753 245.54647487 130.97258753 245.54682554 131.99352893 C245.54775954 134.70160477 245.54871473 137.4096806 245.54970484 140.11775641 C245.55888496 165.52941889 245.55055651 190.94104952 245.53441414 216.35270709 C245.52017698 238.936917 245.52145085 261.52107617 245.53579712 284.10528564 C245.55185576 309.47002059 245.55823394 334.83472738 245.54896033 360.19946671 C245.54799815 362.90265146 245.54705963 365.60583623 245.54613113 368.309021 C245.54577529 369.30743437 245.54577529 369.30743437 245.54541225 370.32601771 C245.54199766 380.38408055 245.5459947 390.44212307 245.55356979 400.50018311 C245.56197154 411.93492516 245.5597326 423.36960541 245.54372756 434.80434036 C245.53582699 440.64184726 245.53278364 446.479251 245.54267502 452.3167572 C245.55158545 457.65597867 245.54674951 462.99500092 245.53074236 468.3342042 C245.52737903 470.27019888 245.52912322 472.20621023 245.53636973 474.14219427 C245.54543926 476.76557064 245.53618974 479.38825687 245.52220726 482.01159668 C245.52923076 482.77032688 245.53625426 483.52905707 245.54349059 484.31077909 C245.49584272 488.75713513 244.92725999 491.62821149 242.14468384 495.14044189 C236.45864137 498.48091775 231.3429884 498.56718527 224.85903931 498.52139282 C223.32614415 498.52841278 223.32614415 498.52841278 221.76228142 498.53557456 C218.3453452 498.54751992 214.92881038 498.53806885 211.51187134 498.52862549 C209.05917121 498.53269138 206.60647291 498.53803335 204.15377808 498.54455566 C198.1879363 498.556813 192.22225147 498.55502189 186.25641584 498.54631774 C181.40680481 498.53953578 176.5572255 498.53862669 171.70761108 498.54188919 C170.67130485 498.54257874 170.67130485 498.54257874 169.61406314 498.54328222 C168.21046399 498.54424142 166.80686485 498.54521406 165.40326571 498.54619999 C152.24933549 498.55474957 139.09546804 498.54492656 125.94154811 498.52879889 C114.6609213 498.51539609 103.38038711 498.51772431 92.09976196 498.53155518 C78.99210905 498.54761865 65.88451113 498.55392563 52.77684975 498.54471838 C51.37848537 498.54376276 49.98012099 498.54281965 48.58175659 498.54188919 C47.54979009 498.54119495 47.54979009 498.54119495 46.49697578 498.54048669 C41.65457644 498.5378991 36.81221204 498.5422628 31.96981812 498.54932785 C25.44940859 498.55863222 18.92914679 498.55198441 12.40874481 498.53464508 C10.01542196 498.53067762 7.62208439 498.53181869 5.2287674 498.53843307 C1.96242214 498.54662809 -1.30336213 498.53635102 -4.56967163 498.52139282 C-5.51724398 498.52808499 -6.46481632 498.53477715 -7.44110298 498.54167211 C-12.99057624 498.49236333 -17.02471221 497.97835877 -21.85531616 495.14044189 C-25.15696405 490.97624589 -25.27578968 487.11791534 -25.21887302 482.00321674 C-25.22173536 481.1842506 -25.2245977 480.36528445 -25.22754678 479.52150115 C-25.23350263 476.76548877 -25.21796701 474.01001373 -25.20262146 471.25404358 C-25.20249755 469.26299958 -25.20369819 467.27195512 -25.2061128 465.28091258 C-25.20894614 459.80043688 -25.19304605 454.32014898 -25.17419493 448.83971083 C-25.15715866 442.93310048 -25.15745273 437.02648888 -25.15574646 431.11985779 C-25.15049288 420.88270508 -25.1344629 410.64561467 -25.11137581 400.40848732 C-25.08718242 389.66972708 -25.07005615 378.93099037 -25.06207085 368.19220543 C-25.06157438 367.52462023 -25.06107791 366.85703503 -25.0605664 366.16921997 C-25.0580957 362.77888476 -25.0557729 359.38854946 -25.05352109 355.99821409 C-25.0489054 349.10399367 -25.04331777 342.20977405 -25.03742886 335.31555462 C-25.03683957 334.62539385 -25.03625029 333.93523307 -25.03564315 333.22415834 C-25.02136957 316.79625894 -24.99720324 300.36837606 -24.97177124 283.94049072 C-24.97066106 283.22165249 -24.96955089 282.50281427 -24.96840707 281.76219306 C-24.95941096 275.9376417 -24.95038992 270.11309037 -24.94132821 264.28853911 C-24.91523824 247.50878878 -24.89158163 230.72903549 -24.86923218 213.94927979 C-24.86827147 213.23036859 -24.86731077 212.5114574 -24.86632095 211.77076102 C-24.84443729 195.36549335 -24.82463561 178.96022562 -24.8099966 162.55494976 C-24.80907202 161.52148745 -24.80907202 161.52148745 -24.80812876 160.4671471 C-24.80200827 153.59010214 -24.7961594 146.71305701 -24.79076221 139.83601144 C-24.77853236 124.38315121 -24.7585894 108.93033909 -24.7275437 93.47750487 C-24.70760656 83.36368634 -24.69449927 73.24987455 -24.686853 63.13603929 C-24.68215919 57.29283823 -24.67405354 51.44969007 -24.65727997 45.60651016 C-24.6419885 40.265651 -24.63573136 34.92486312 -24.63688021 29.58398291 C-24.6356351 27.64399648 -24.63093906 25.70400882 -24.62258614 23.76403997 C-24.61176683 21.14264907 -24.6130666 18.52154603 -24.61760044 15.90014362 C-24.61148887 15.13353239 -24.6053773 14.36692115 -24.59908053 13.57707927 C-24.48209462 9.40203569 -24.48209462 9.40203569 -26.85531616 6.14044189 C-25.20531616 6.14044189 -23.55531616 6.14044189 -21.85531616 6.14044189 C-21.85531616 5.48044189 -21.85531616 4.82044189 -21.85531616 4.14044189 C-14.34929638 0.75537415 -8.20480947 -0.00761216 0 0 Z M-0.85531616 25.14044189 C-0.85531616 173.31044189 -0.85531616 321.48044189 -0.85531616 474.14044189 C72.40468384 474.14044189 145.66468384 474.14044189 221.14468384 474.14044189 C221.14468384 325.97044189 221.14468384 177.80044189 221.14468384 25.14044189 C147.88468384 25.14044189 74.62468384 25.14044189 -0.85531616 25.14044189 Z " fill="#22970A" transform="translate(139.85531616210938,0.85955810546875)"/>
<path d="M0 0 C12.54736602 9.75498003 20.71348396 21.07415935 23.375 36.9375 C25.21394781 53.01061119 21.83048378 67.06106285 12 80 C2.65742812 91.00964791 -9.60490343 98.08430274 -24 100 C-40.59965605 101.05652646 -54.54458284 97.6681999 -67.25 86.6875 C-78.65464892 75.84314286 -84.96375733 63.89522236 -86 48 C-86.1456553 31.63198615 -80.96005907 18.09737689 -69.6875 6.1875 C-50.57704659 -11.95123544 -21.90821723 -14.55263634 0 0 Z " fill="#229809" transform="translate(281,53)"/>
<path d="M0 0 C0.72000523 -0.00594224 1.44001047 -0.01188449 2.18183404 -0.0180068 C4.58906903 -0.03531882 6.99610436 -0.03839193 9.40339661 -0.04138184 C11.13173342 -0.05064269 12.86006616 -0.06069262 14.58839417 -0.07147217 C19.28076711 -0.09768296 23.97308287 -0.110603 28.66551757 -0.11949348 C31.59956296 -0.12536157 34.53359283 -0.13357248 37.46763039 -0.14250183 C46.65453555 -0.16984326 55.84140512 -0.18918014 65.02834815 -0.19690561 C75.62028764 -0.20586236 86.21171034 -0.24094019 96.80349272 -0.2989068 C104.99902177 -0.34219643 113.19440573 -0.36231717 121.39004785 -0.36498785 C126.28098803 -0.36708016 131.17144214 -0.3788129 136.06226158 -0.41462708 C140.66634803 -0.44768614 145.26958562 -0.45185382 149.87374878 -0.43434906 C151.55792331 -0.43281338 153.24214439 -0.4414272 154.92620277 -0.46126556 C164.42351583 -0.56652991 172.18657676 -0.24655676 179.74641418 6.28088379 C184.43714099 11.79248778 186.01608434 17.49464294 185.74641418 24.65588379 C184.9416653 31.31335181 182.41276934 36.31890271 177.16977024 40.55462551 C169.54137657 45.60852544 161.38314172 44.97833064 152.60359192 44.9119873 C150.87141692 44.91713166 149.13924716 44.92441683 147.40708923 44.93367004 C142.72315144 44.95212515 138.03978563 44.9392834 133.35587192 44.91957974 C128.44422203 44.90314576 123.53260701 44.91201262 118.62094116 44.917099 C110.37531947 44.92161422 102.12992506 44.90578447 93.88435364 44.87780762 C84.36219009 44.84574771 74.84043611 44.84577747 65.31824344 44.86302239 C56.14251046 44.87890516 46.9669271 44.87214333 37.79120064 44.85508537 C33.89304159 44.8482272 29.99500293 44.84923461 26.09684563 44.85663033 C21.50427956 44.86431121 16.91217771 44.85210834 12.3196907 44.82478142 C10.63793503 44.81791579 8.95613584 44.81778001 7.27438164 44.82499695 C-9.9121037 44.89023226 -9.9121037 44.89023226 -17.27702332 38.53479004 C-17.72303894 37.97662598 -18.16905457 37.41846191 -18.62858582 36.84338379 C-19.09007019 36.28779785 -19.55155457 35.73221191 -20.02702332 35.15979004 C-23.91771962 29.19983806 -23.96378977 23.19413492 -23.25358582 16.28088379 C-21.53469327 10.09492917 -17.57148836 5.75244595 -12.25358582 2.28088379 C-8.08088363 0.23875769 -4.62145759 0.02135231 0 0 Z " fill="#229809" transform="translate(171.2535858154297,230.7191162109375)"/>
<path d="M0 0 C1.16784027 -0.01272446 2.33568054 -0.02544891 3.53890991 -0.03855896 C4.81642624 -0.03203308 6.09394257 -0.0255072 7.41017151 -0.01878357 C8.77209915 -0.02584256 10.13401895 -0.0345875 11.4959259 -0.04489136 C15.19231635 -0.06739874 18.8882789 -0.0644426 22.58471179 -0.05556989 C25.67124847 -0.05046044 28.7577047 -0.05775223 31.8442331 -0.06504196 C39.12621244 -0.08204545 46.40798226 -0.07847097 53.68995667 -0.06175232 C61.20074381 -0.04483123 68.71094977 -0.06066385 76.22167343 -0.0929752 C82.67192873 -0.11967241 89.12200312 -0.12694678 95.57230812 -0.11846012 C99.42401244 -0.11353109 103.27536709 -0.11574467 107.12702751 -0.13624763 C110.74947337 -0.15460718 114.37108353 -0.14864418 117.9934845 -0.12404823 C119.95461818 -0.11665514 121.91579634 -0.13389401 123.87686157 -0.15187073 C133.46441456 -0.04823644 133.46441456 -0.04823644 136.59683228 2.82754517 C138.27565002 5.5146637 138.27565002 5.5146637 138.40065002 9.1396637 C137.27565002 12.5146637 137.27565002 12.5146637 135.06587982 14.20137119 C131.94947688 15.66818537 129.93608363 15.89400455 126.50697327 15.90234375 C124.77839333 15.9172007 124.77839333 15.9172007 123.01489258 15.93235779 C121.759673 15.92785614 120.50445343 15.92335449 119.2111969 15.91871643 C117.86882967 15.92442197 116.5264673 15.93138695 115.18411255 15.93951416 C111.54568908 15.95743912 107.90750685 15.9562787 104.26905251 15.95057178 C101.22969883 15.94747941 98.19039145 15.95357279 95.15104437 15.95961052 C87.98078902 15.97365151 80.81065284 15.97209762 73.64039612 15.96070862 C66.24611387 15.94922325 58.85219414 15.96331082 51.45795965 15.99010509 C45.10536569 16.01226188 38.75288554 16.01889968 32.40025568 16.01302868 C28.60785393 16.00965836 24.81568465 16.01207912 21.02331543 16.02927971 C17.4575972 16.04474703 13.89241627 16.04079642 10.32671928 16.02197456 C8.39660686 16.01653201 6.46647032 16.0308038 4.53640747 16.04566956 C3.38402084 16.03583542 2.23163422 16.02600128 1.04432678 16.01586914 C0.04514473 16.01565986 -0.95403732 16.01545057 -1.98349762 16.01523495 C-5.52108293 15.36915363 -7.20808426 14.0457528 -9.72434998 11.5146637 C-10.28684998 8.0146637 -10.28684998 8.0146637 -9.72434998 4.5146637 C-6.77768561 0.67348821 -4.76524383 0.01317991 0 0 Z " fill="#32A11C" transform="translate(157.72434997558594,167.48533630371094)"/>
<path d="M0 0 C1.17769958 -0.01134979 2.35539917 -0.02269958 3.56878662 -0.03439331 C5.50144379 -0.02999741 5.50144379 -0.02999741 7.47314453 -0.0255127 C8.8465443 -0.03285368 10.21993789 -0.04143999 11.59332275 -0.05117798 C15.32056295 -0.07339737 19.04758212 -0.07632456 22.77487946 -0.07443047 C25.88635409 -0.07431081 28.99778181 -0.08287275 32.10924339 -0.09120798 C39.44867455 -0.11044272 46.78799195 -0.11332527 54.12744141 -0.10656738 C61.70071274 -0.09992265 69.27349752 -0.12280772 76.84667015 -0.15988111 C83.34869892 -0.19055667 89.85057097 -0.20194061 96.35267067 -0.1980443 C100.23621909 -0.19597494 104.11938871 -0.20148451 108.00286865 -0.22593689 C111.65400815 -0.24816728 115.30435492 -0.24635838 118.95549774 -0.22600937 C120.93473561 -0.22096296 122.913988 -0.24064349 124.89312744 -0.26101685 C126.07082703 -0.24980804 127.24852661 -0.23859924 128.46191406 -0.22705078 C129.99720261 -0.22811954 129.99720261 -0.22811954 131.56350708 -0.2292099 C134.23095703 0.39440918 134.23095703 0.39440918 136.59542847 2.73793793 C138.23095703 5.39440918 138.23095703 5.39440918 138.16845703 8.51940918 C137.18901037 11.52304562 136.71278437 12.5383064 134.23095703 14.39440918 C131.66814423 14.7719326 131.66814423 14.7719326 128.53747559 14.77536011 C127.35129135 14.78381958 126.16510712 14.79227905 124.94297791 14.80099487 C123.64002274 14.79492218 122.33706757 14.78884949 120.99462891 14.78259277 C119.60990484 14.78665743 118.22518402 14.79199872 116.84046936 14.79852295 C113.07808819 14.81221509 109.31595344 14.8068902 105.55356789 14.79738569 C101.61916049 14.78979887 97.68477442 14.79683198 93.75036621 14.80154419 C87.14278367 14.8070046 80.53530166 14.79980267 73.92773438 14.78552246 C66.28470855 14.76919534 58.6419228 14.77448365 50.9989028 14.79100168 C44.440867 14.80460844 37.88290354 14.80654019 31.32485819 14.79868567 C27.40622427 14.79400467 23.48770324 14.79339593 19.56907654 14.80329514 C15.885271 14.81195082 12.20177546 14.80596884 8.51800346 14.78861237 C6.51831872 14.78274258 4.5186078 14.79167499 2.51893616 14.80099487 C1.33275192 14.7925354 0.14656769 14.78407593 -1.07556152 14.77536011 C-2.6252425 14.77366349 -2.6252425 14.77366349 -4.20623016 14.7719326 C-6.76904297 14.39440918 -6.76904297 14.39440918 -8.59778595 12.9916935 C-10.0509768 11.00992612 -10.20191693 9.83695808 -10.20654297 7.39440918 C-10.22587891 6.71378418 -10.24521484 6.03315918 -10.26513672 5.33190918 C-8.99147016 0.35758939 -4.44441614 0.01619105 0 0 Z " fill="#329F1C" transform="translate(213.76904296875,197.6055908203125)"/>
<path d="M0 0 C6.55958144 4.03126311 10.20883994 9.40157498 12.08984375 16.82421875 C13.21808671 24.01273816 12.09186998 29.74554685 7.875 35.6875 C2.95320996 41.95159641 -1.67924463 44.62504275 -9.54296875 45.72265625 C-15.95703347 46.01711431 -21.81944663 44.08238502 -27.25 40.75 C-33.45528602 34.37234492 -35.95700526 27.99022981 -35.83984375 19.1640625 C-34.92624954 11.83430667 -30.97653243 6.16374329 -25.34375 1.59375 C-18.1495217 -2.91788469 -7.77786918 -3.50530661 0 0 Z " fill="#229809" transform="translate(330.5,418.5625)"/>
<path d="M0 0 C6.44730694 0.09768647 12.21615471 2.62630923 17.1875 6.625 C22.56670884 13.42811706 24.82507829 18.91072432 24.12890625 27.60546875 C23.02629129 34.20979132 19.91793695 39.66953139 14.46875 43.6640625 C7.31327827 47.87851407 0.09513977 48.28600838 -8.0078125 46.921875 C-14.46368071 44.94713884 -18.58061207 40.10788676 -21.7890625 34.328125 C-24.49888816 27.99675664 -24.66214652 21.56531289 -22.4375 15.0625 C-19.53145543 8.29958522 -15.11755815 4.63749989 -8.6875 1.3125 C-5.7345481 0.35279063 -3.11016008 0.26357289 0 0 Z " fill="#229809" transform="translate(318.6875,359.6875)"/>
<path d="M0 0 C4.28896946 3.37543444 6.75785049 7.89070097 9.1640625 12.703125 C9.91651229 22.1025798 9.56339277 28.85963769 3.87890625 36.41015625 C-0.3795479 41.28543384 -5.56306289 43.11376298 -11.875 43.984375 C-18.59496931 44.30564843 -24.46602017 42.207111 -30.0859375 38.640625 C-34.57338703 34.4414753 -37.36947445 28.91115865 -38.25 22.85546875 C-38.518792 13.97311502 -35.72037518 7.87920351 -29.703125 1.4375 C-21.72031173 -5.9774981 -9.04021687 -5.12377112 0 0 Z " fill="#219808" transform="translate(200.8359375,420.296875)"/>
<path d="M0 0 C5.8385475 6.63041527 7.37375927 12.50694302 7.28125 21.1796875 C6.7254048 26.75357965 4.23117754 30.49522746 0.75 34.75 C-5.13464052 39.56470588 -11.29599086 42.30611957 -19 42 C-26.89586788 40.74053641 -32.398534 37.58465553 -37.31640625 31.32421875 C-41.12519655 25.12664011 -40.795855 18.0232153 -40 11 C-38.34708545 4.81868641 -34.405973 0.32199104 -29 -3 C-18.84911743 -7.60487057 -9.07812866 -6.53932996 0 0 Z " fill="#229709" transform="translate(269,423)"/>
<path d="M0 0 C5.38958131 4.5848022 7.89395218 10.06593095 9 17 C9.28106561 24.07348445 7.15403292 30.37900637 2.49609375 35.7265625 C-2.36843907 40.30892985 -7.79996571 42.84347698 -14.515625 43.09375 C-22.57573052 42.599265 -28.38005722 40.05047438 -33.875 34.125 C-38.29467552 28.64822669 -39.54303853 23.62984897 -39.375 16.65625 C-38.38417543 9.63790932 -34.62602155 3.47434292 -29.01171875 -0.8125 C-19.51493898 -6.41836612 -9.08752311 -6.28841262 0 0 Z " fill="#229809" transform="translate(334,307)"/>
<path d="M0 0 C4.97797517 4.53874207 8.48905123 9.79255765 9.31640625 16.60546875 C9.65770449 24.58744373 7.75452833 29.63335426 2.75 35.75 C-3.45473366 40.82660026 -9.88414575 43.46684117 -18 43 C-25.24935731 41.57209629 -30.01141087 38.81481744 -34.66015625 33.09765625 C-38.88912193 26.47679744 -38.82362262 19.65035029 -38 12 C-35.97862403 5.91852122 -32.40143167 1.46506937 -27 -2 C-17.61375355 -6.10047627 -8.54025479 -5.96376442 0 0 Z " fill="#229709" transform="translate(267,307)"/>
<path d="M0 0 C6.5680227 6.96123027 8.49060793 13.28728684 8.30859375 22.7734375 C7.71253767 29.00561878 5.29606481 33.03747309 0.8125 37.3125 C-4.75887296 41.64184714 -10.39937231 43.32059777 -17.4375 43.0625 C-24.28664623 42.159527 -30.26793764 39.32871965 -34.69921875 33.9296875 C-38.9155015 27.38176415 -39.57421483 21.70314606 -39 14 C-36.9340253 6.82985251 -32.21334024 1.03292954 -25.9375 -2.9375 C-17.1655918 -6.11031786 -7.68019582 -5.65909166 0 0 Z " fill="#229809" transform="translate(201,307)"/>
<path d="M0 0 C5.07457496 4.47646668 8.52079666 9.15124052 9.37109375 15.98046875 C9.5308972 23.69803547 8.83235915 29.77087504 4 36 C-1.07260472 40.7193866 -7.03935076 43.64963175 -14 44 C-21.88799699 43.40242447 -27.17958673 40.95159528 -32.6875 35.1875 C-37.6220298 28.38585082 -39.18316064 22.28212449 -38 14 C-35.70942695 6.61926463 -31.76705378 1.7076195 -25 -2 C-16.16554632 -5.47067823 -8.13654088 -4.74962305 0 0 Z " fill="#22970A" transform="translate(201,364)"/>
<path d="M0 0 C5.81369037 3.68945735 8.80935759 8.48376706 11 15 C12.40484482 22.95323439 10.59455534 29.42483433 6 36 C1.7552643 40.67017618 -2.61477256 43.57851034 -8.98046875 44.37109375 C-16.66899973 44.53029597 -22.8117639 43.85899405 -29 39 C-34.91689757 32.10500304 -36.37315584 26.27152519 -36.2734375 17.296875 C-35.75005823 10.98641637 -33.31396184 6.96947793 -28.75 2.6875 C-19.87474958 -4.25752538 -10.08312341 -4.61049881 0 0 Z " fill="#219809" transform="translate(265,363)"/>
<path d="M0 0 C0.66 0 1.32 0 2 0 C2.21890686 57.02141746 2.41683641 114.04287449 2.58644359 171.0644611 C2.60645409 177.79012626 2.62666161 184.51579082 2.64697266 191.24145508 C2.64899054 191.91075233 2.65100841 192.58004958 2.65308744 193.26962856 C2.71862742 214.97751655 2.79718604 236.68533378 2.88247023 258.39315242 C2.97249561 281.3257192 3.04774127 304.25830179 3.10732102 327.1909706 C3.14350869 340.93506419 3.19161182 354.67901152 3.25476131 368.42300811 C3.2968861 377.83650912 3.32438156 387.24998057 3.3401753 396.66356234 C3.3497377 402.10187951 3.36593887 407.53997218 3.39944649 412.97819901 C3.42994169 417.95051619 3.44219271 422.92252201 3.43952778 427.89492889 C3.4418537 429.69983828 3.4510512 431.50475367 3.4675779 433.30958889 C3.4889641 435.75154836 3.48598071 438.19226881 3.47657394 440.63427448 C3.48868634 441.3451402 3.50079874 442.05600592 3.51327819 442.78841302 C3.49038196 444.7548154 3.49038196 444.7548154 3 448 C1.68 448.99 0.36 449.98 -1 451 C-0.67 302.17 -0.34 153.34 0 0 Z " fill="#398B24" transform="translate(361,26)"/>
<path d="M0 0 C1.16784027 -0.01272446 2.33568054 -0.02544891 3.53890991 -0.03855896 C4.81642624 -0.03203308 6.09394257 -0.0255072 7.41017151 -0.01878357 C8.77209915 -0.02584256 10.13401895 -0.0345875 11.4959259 -0.04489136 C15.19231635 -0.06739874 18.8882789 -0.0644426 22.58471179 -0.05556989 C25.67124847 -0.05046044 28.7577047 -0.05775223 31.8442331 -0.06504196 C39.12621244 -0.08204545 46.40798226 -0.07847097 53.68995667 -0.06175232 C61.20074381 -0.04483123 68.71094977 -0.06066385 76.22167343 -0.0929752 C82.67192873 -0.11967241 89.12200312 -0.12694678 95.57230812 -0.11846012 C99.42401244 -0.11353109 103.27536709 -0.11574467 107.12702751 -0.13624763 C110.74947337 -0.15460718 114.37108353 -0.14864418 117.9934845 -0.12404823 C119.95461818 -0.11665514 121.91579634 -0.13389401 123.87686157 -0.15187073 C133.46441456 -0.04823644 133.46441456 -0.04823644 136.59683228 2.82754517 C138.27565002 5.5146637 138.27565002 5.5146637 138.40065002 9.1396637 C137.27565002 12.5146637 137.27565002 12.5146637 135.06587982 14.20137119 C131.94947688 15.66818537 129.93608363 15.89400455 126.50697327 15.90234375 C124.77839333 15.9172007 124.77839333 15.9172007 123.01489258 15.93235779 C121.759673 15.92785614 120.50445343 15.92335449 119.2111969 15.91871643 C117.86882967 15.92442197 116.5264673 15.93138695 115.18411255 15.93951416 C111.54568908 15.95743912 107.90750685 15.9562787 104.26905251 15.95057178 C101.22969883 15.94747941 98.19039145 15.95357279 95.15104437 15.95961052 C87.98078902 15.97365151 80.81065284 15.97209762 73.64039612 15.96070862 C66.24611387 15.94922325 58.85219414 15.96331082 51.45795965 15.99010509 C45.10536569 16.01226188 38.75288554 16.01889968 32.40025568 16.01302868 C28.60785393 16.00965836 24.81568465 16.01207912 21.02331543 16.02927971 C17.4575972 16.04474703 13.89241627 16.04079642 10.32671928 16.02197456 C8.39660686 16.01653201 6.46647032 16.0308038 4.53640747 16.04566956 C3.38402084 16.03583542 2.23163422 16.02600128 1.04432678 16.01586914 C0.04514473 16.01565986 -0.95403732 16.01545057 -1.98349762 16.01523495 C-5.52108293 15.36915363 -7.20808426 14.0457528 -9.72434998 11.5146637 C-10.28684998 8.0146637 -10.28684998 8.0146637 -9.72434998 4.5146637 C-6.77768561 0.67348821 -4.76524383 0.01317991 0 0 Z M-4.72434998 1.5146637 C-4.72434998 2.1746637 -4.72434998 2.8346637 -4.72434998 3.5146637 C-6.70434998 4.5046637 -6.70434998 4.5046637 -8.72434998 5.5146637 C-8.27731011 9.99350066 -8.27731011 9.99350066 -5.72434998 13.5146637 C-3.18146789 13.81387799 -3.18146789 13.81387799 -0.16889954 13.75517273 C1.01183136 13.75792206 2.19256226 13.76067139 3.40907288 13.76350403 C4.71098572 13.75631348 6.01289856 13.74912292 7.35426331 13.74171448 C8.73385103 13.74115056 10.11343936 13.74146654 11.49302673 13.74259949 C15.24490702 13.74317477 18.99666017 13.73139216 22.74851084 13.71745157 C26.66696438 13.7049734 30.58542064 13.70377602 34.50389099 13.70140076 C41.92703933 13.6951774 49.35012896 13.67875505 56.77325141 13.65870178 C65.2229474 13.63636935 73.67264615 13.62535604 82.12236428 13.61531091 C99.50682686 13.59438953 116.89123224 13.55919698 134.27565002 13.5146637 C135.98099011 10.30180298 136.84249598 8.19916244 136.27565002 4.5146637 C133.16390901 1.47475598 130.86147698 1.14217516 126.59358215 1.15390015 C125.43534439 1.14977615 124.27710663 1.14565216 123.08377075 1.1414032 C121.18376564 1.15758194 121.18376564 1.15758194 119.24537659 1.17408752 C117.89505024 1.17493395 116.54472252 1.17445836 115.19439697 1.17276001 C111.53140647 1.17189922 107.86871063 1.18953836 104.20578861 1.21048188 C100.37677568 1.22923476 96.547756 1.23099802 92.71870422 1.23455811 C85.46912377 1.24388267 78.21967903 1.26850197 70.97015834 1.29860657 C62.71631191 1.33213782 54.462459 1.34863338 46.20856142 1.36369288 C29.23084579 1.3950512 12.25326226 1.44781965 -4.72434998 1.5146637 Z " fill="#3A8629" transform="translate(157.72434997558594,167.48533630371094)"/>
<path d="M0 0 C0.66 0 1.32 0 2 0 C2 148.17 2 296.34 2 449 C1.34 448.67 0.68 448.34 0 448 C0.00037972 447.06164863 0.00075944 446.12329727 0.00115067 445.15651101 C0.02354743 389.59243106 0.04067655 334.02835153 0.05106533 278.46426798 C0.0523161 271.79868841 0.05360925 265.13310885 0.05493164 258.4675293 C0.05512778 257.47255248 0.05512778 257.47255248 0.05532788 256.45747512 C0.05959194 234.94363967 0.06710527 213.42980683 0.07629722 191.91597297 C0.08599021 169.18828133 0.09199432 146.46059123 0.09408849 123.73289758 C0.0954634 110.11171966 0.09981224 96.49054926 0.10791647 82.86937366 C0.11318584 73.53995387 0.11480386 64.210538 0.11350138 54.88111683 C0.1128583 49.49150584 0.11387214 44.10190802 0.11920547 38.71229935 C0.12404649 33.78445915 0.12433397 28.85664109 0.12089889 23.9287999 C0.1204739 22.14006343 0.12176372 20.35132562 0.12488318 18.56259181 C0.12885997 16.14278565 0.12675528 13.72306079 0.12304783 11.30325603 C0.12698835 10.24658353 0.12698835 10.24658353 0.13100848 9.16856411 C0.12049258 6.15889769 -0.03941723 3.8817483 -1 1 C-0.67 0.67 -0.34 0.34 0 0 Z " fill="#33951A" transform="translate(137,26)"/>
<path d="M0 0 C1.17632492 -0.00997513 2.35264984 -0.01995026 3.56462097 -0.03022766 C4.85665436 -0.03089233 6.14868774 -0.03155701 7.47987366 -0.03224182 C8.85312349 -0.03986255 10.22636905 -0.0482899 11.59960938 -0.0574646 C15.33099447 -0.07942306 19.06229762 -0.08821009 22.79374003 -0.09329104 C25.12435998 -0.09693253 27.4549584 -0.10317145 29.78557014 -0.11029243 C37.9144752 -0.13479002 46.04331639 -0.14783983 54.17225647 -0.15138245 C61.75287235 -0.15501969 69.33308384 -0.1849274 76.91357607 -0.22678703 C83.41981649 -0.26145683 89.92592265 -0.27693029 96.43225485 -0.27762848 C100.31919164 -0.27842234 104.20571645 -0.28721008 108.09255791 -0.31562614 C111.74775979 -0.34175125 115.40220647 -0.3440441 119.05745888 -0.3279705 C121.03911186 -0.32528384 123.02074977 -0.34737669 125.00227356 -0.37016296 C126.1814183 -0.36039932 127.36056305 -0.35063568 128.57543945 -0.34057617 C130.11267622 -0.34359316 130.11267622 -0.34359316 131.68096828 -0.3466711 C134.35121155 0.27415466 134.35121155 0.27415466 136.72391605 2.61335659 C138.35121155 5.27415466 138.35121155 5.27415466 138.16371155 8.46165466 C137.35121155 11.27415466 137.35121155 11.27415466 136.35121155 13.27415466 C135.69121155 13.27415466 135.03121155 13.27415466 134.35121155 13.27415466 C134.68121155 11.62415466 135.01121155 9.97415466 135.35121155 8.27415466 C136.01121155 8.27415466 136.67121155 8.27415466 137.35121155 8.27415466 C137.35121155 7.61415466 137.35121155 6.95415466 137.35121155 6.27415466 C136.69121155 6.27415466 136.03121155 6.27415466 135.35121155 6.27415466 C135.35121155 5.28415466 135.35121155 4.29415466 135.35121155 3.27415466 C108.81704358 2.09558084 82.27350409 2.02119614 55.71742249 1.97898865 C49.40852859 1.96774101 43.09996986 1.93303499 36.79119682 1.89381695 C31.89623846 1.86776724 27.0013639 1.85930934 22.10634232 1.85570717 C19.77710211 1.85084456 17.44786556 1.83923994 15.11869431 1.82066917 C11.8897592 1.7964328 8.66175186 1.79720933 5.43275452 1.80418396 C4.48020279 1.7913739 3.52765106 1.77856384 2.54623413 1.7653656 C-1.82450571 1.79988455 -4.02839575 1.87192798 -7.77888489 4.30352783 C-8.39595306 4.95383469 -9.01302124 5.60414154 -9.64878845 6.27415466 C-9.33628845 4.39915466 -9.33628845 4.39915466 -8.64878845 2.27415466 C-5.23445295 -0.002069 -4.01209579 0.01821302 0 0 Z " fill="#43932F" transform="translate(213.64878845214844,197.72584533691406)"/>
<path d="M0 0 C4.42420487 2.67355176 8.65951171 6.6126636 10.16015625 11.65625 C10.27230469 12.2440625 10.38445312 12.831875 10.5 13.4375 C8.16475218 11.18009377 6.31294927 9.1569239 4.5 6.4375 C2.53533587 5.36974776 0.53144641 4.37196535 -1.5 3.4375 C-2.83333333 2.77083333 -4.16666667 2.10416667 -5.5 1.4375 C-6.49 2.9225 -6.49 2.9225 -7.5 4.4375 C-10.55351712 5.51035736 -12.09187377 5.57037831 -15.1875 4.5625 C-16.62856242 3.86144261 -18.06664244 3.15417878 -19.5 2.4375 C-24.14654239 3.36680848 -27.0169121 6.37328684 -29.984375 9.86328125 C-32.79829558 14.64259481 -33.09322976 19.9917596 -33.5 25.4375 C-34.16 25.4375 -34.82 25.4375 -35.5 25.4375 C-36.10987605 17.87503702 -34.77940503 12.75471695 -30.5 6.4375 C-22.83017923 -2.03599219 -10.69663899 -4.82072898 0 0 Z " fill="#1E9704" transform="translate(330.5,418.5625)"/>
<path d="M0 0 C9.99735926 4.47775293 15.97702237 14.8135074 20.06640625 24.53515625 C23.37615692 34.36847345 23.49406563 44.8173681 22 55 C21.67 55 21.34 55 21 55 C20.98018066 54.39003174 20.96036133 53.78006348 20.93994141 53.15161133 C20.84432124 50.37149467 20.73479295 47.59209154 20.625 44.8125 C20.5940625 43.85279297 20.563125 42.89308594 20.53125 41.90429688 C20.49257813 40.97294922 20.45390625 40.04160156 20.4140625 39.08203125 C20.36693115 37.80162964 20.36693115 37.80162964 20.31884766 36.49536133 C19.96514578 33.72722434 19.10988613 31.55071625 18 29 C17.52784202 27.31631578 17.06937262 25.62872993 16.625 23.9375 C15.47086348 20.02625956 14.48297559 17.39454571 11 15 C10.01 15 9.02 15 8 15 C8.33 13.02 8.66 11.04 9 9 C8.01 8.67 7.02 8.34 6 8 C5.34 7.34 4.68 6.68 4 6 C1.39719432 6.32041397 1.39719432 6.32041397 -1 7 C-0.34 6.67 0.32 6.34 1 6 C0.67 4.02 0.34 2.04 0 0 Z " fill="#2D8A16" transform="translate(282,55)"/>
<path d="M0 0 C0.33 0 0.66 0 1 0 C1.06954115 9.69239571 1.12283212 19.3847054 1.15543652 29.07729626 C1.17108579 33.57806911 1.19231054 38.07867115 1.22631836 42.5793457 C1.25893821 46.92356862 1.27685857 51.26762733 1.28463173 55.61196327 C1.29017053 57.26855364 1.30098652 58.92513512 1.31719017 60.5816555 C1.3389997 62.90383632 1.34196551 65.2253405 1.34057617 67.54760742 C1.351362 68.23093643 1.36214783 68.91426544 1.3732605 69.61830139 C1.34557311 73.90122549 0.63379205 76.6006173 -2 80 C-4.1875 80.8125 -4.1875 80.8125 -6 81 C-6 80.34 -6 79.68 -6 79 C-5.34 79 -4.68 79 -4 79 C-3.87625 78.360625 -3.7525 77.72125 -3.625 77.0625 C-3.41875 76.381875 -3.2125 75.70125 -3 75 C-2.01 74.505 -2.01 74.505 -1 74 C-0.67 49.58 -0.34 25.16 0 0 Z " fill="#2A8D11" transform="translate(384,416)"/>
<path d="M0 0 C7.72347084 -0.42128023 13.67309335 0.88869385 20.25 5.0625 C24.77445964 9.29628207 27.60239515 14.86425038 28.37890625 20.98828125 C28.52250804 28.21623794 28.52250804 28.21623794 26 32 C26.02320313 31.19175781 26.04640625 30.38351562 26.0703125 29.55078125 C26.08835937 28.48214844 26.10640625 27.41351563 26.125 26.3125 C26.14820313 25.25675781 26.17140625 24.20101563 26.1953125 23.11328125 C25.9948036 19.91716934 25.49234713 17.82162322 24 15 C23.01 14.34 22.02 13.68 21 13 C21 12.01 21 11.02 21 10 C16.83150706 5.7298365 14.10910037 4.34579813 8 4 C7.01 4 6.02 4 5 4 C5 3.01 5 2.02 5 1 C3.35 1 1.7 1 0 1 C0 0.67 0 0.34 0 0 Z " fill="#2C8417" transform="translate(248,360)"/>
<path d="M0 0 C0.99 1.485 0.99 1.485 2 3 C-3.94 1.515 -3.94 1.515 -10 0 C-10 0.66 -10 1.32 -10 2 C-13.73487777 1.5020163 -15.81237635 1.12508244 -19 -1 C-22.14221967 -0.68493373 -22.14221967 -0.68493373 -25 0 C-25 0.66 -25 1.32 -25 2 C-26.32 1.67 -27.64 1.34 -29 1 C-19.62727844 -5.75707833 -10.01868085 -5.56800293 0 0 Z " fill="#23990B" transform="translate(333,364)"/>
<path d="M0 0 C4.75 0.875 4.75 0.875 7 2 C8.53668865 2.22467831 10.07968054 2.40796805 11.625 2.5625 C12.44226563 2.64628906 13.25953125 2.73007812 14.1015625 2.81640625 C14.72804688 2.87699219 15.35453125 2.93757813 16 3 C16 2.34 16 1.68 16 1 C16.99 0.67 17.98 0.34 19 0 C19.66 0.33 20.32 0.66 21 1 C24.20443852 1.16865466 26.92505169 0.9110958 30 0 C27.1584661 4.26230085 23.85455511 4.85270161 19 6 C13.1054769 6.84047383 7.31592084 5.68001818 2 3 C1.34 2.01 0.68 1.02 0 0 Z " fill="#2B8A14" transform="translate(304,458)"/>
<path d="M0 0 C-0.96099609 0.4021875 -0.96099609 0.4021875 -1.94140625 0.8125 C-8.28946996 3.6885229 -13.59443595 6.72502484 -17 13 C-18.10331492 17.31430769 -18.66862641 21.56365152 -19 26 C-19.66 26 -20.32 26 -21 26 C-21.60987605 18.43753702 -20.27940503 13.31721695 -16 7 C-11.5810034 2.11796503 -6.75407909 -1.9480186 0 0 Z " fill="#2E891A" transform="translate(316,418)"/>
<path d="M0 0 C2.64 0.33 5.28 0.66 8 1 C8 1.66 8 2.32 8 3 C10.28705831 4.14352916 11.59264762 4.10334439 14.125 4.0625 C15.40375 4.041875 16.6825 4.02125 18 4 C18.33 4.66 18.66 5.32 19 6 C26.59 6.33 34.18 6.66 42 7 C42 7.33 42 7.66 42 8 C27.31493445 10.7465281 12.64575508 9.26712154 0 1 C0 0.67 0 0.34 0 0 Z " fill="#2E8819" transform="translate(221,144)"/>
<path d="M0 0 C2.77306206 1.38653103 3.21996878 3.10978644 4.5625 5.875 C5.21412109 7.20144531 5.21412109 7.20144531 5.87890625 8.5546875 C7 11 7 11 8 14 C8.99 14.33 9.98 14.66 11 15 C10.67 15.66 10.34 16.32 10 17 C11.65 16.67 13.3 16.34 15 16 C15 17.65 15 19.3 15 21 C16.98 21.99 18.96 22.98 21 24 C21 24.66 21 25.32 21 26 C21.66 26 22.32 26 23 26 C22.67 26.99 22.34 27.98 22 29 C12.31971606 23.19182963 5.84273925 15.17677088 1 5 C0.30859375 2.13671875 0.30859375 2.13671875 0 0 Z " fill="#2F8C18" transform="translate(198,115)"/>
<path d="M0 0 C2.125 2.8125 2.125 2.8125 3 5 C2.34 5.33 1.68 5.66 1 6 C0.34 5.67 -0.32 5.34 -1 5 C-1 3.68 -1 2.36 -1 1 C-1.86625 0.71125 -2.7325 0.4225 -3.625 0.125 C-5.72559515 -0.57519838 -7.81302202 -1.31813905 -9.875 -2.125 C-16.94116676 -4.10352669 -23.43205815 -3.14794846 -30 0 C-31.72769142 1.51778268 -31.72769142 1.51778268 -33 3 C-33.66 2.67 -34.32 2.34 -35 2 C-24.61538553 -8.11133514 -11.73796344 -7.84704593 0 0 Z " fill="#31861B" transform="translate(269,423)"/>
<path d="M0 0 C6.4931088 0.61839131 10.22803504 3.14561807 14.6875 7.8125 C19.58683268 14.56563423 21.05352816 20.74964312 20 29 C19.34 29.66 18.68 30.32 18 31 C17.67 25.39 17.34 19.78 17 14 C16.34 14 15.68 14 15 14 C14.731875 13.236875 14.46375 12.47375 14.1875 11.6875 C12.20489261 7.20054643 9.30310971 5.25400985 5 3 C2.30745009 2.29329272 2.30745009 2.29329272 0 2 C0 1.34 0 0.68 0 0 Z " fill="#2D8518" transform="translate(256,303)"/>
<path d="M0 0 C0.99 0.33 1.98 0.66 3 1 C-2.4030155 7.05792647 -7.98263306 9.25810134 -15.91015625 9.94921875 C-18.39634911 10.00963091 -20.61250471 9.69314379 -23 9 C-23 8.67 -23 8.34 -23 8 C-22.24074219 7.96261719 -21.48148438 7.92523438 -20.69921875 7.88671875 C-19.20841797 7.78810547 -19.20841797 7.78810547 -17.6875 7.6875 C-16.20830078 7.60048828 -16.20830078 7.60048828 -14.69921875 7.51171875 C-11.70145133 6.94340105 -10.9473895 6.23500395 -9 4 C-8.34 4 -7.68 4 -7 4 C-6.67 3.01 -6.34 2.02 -6 1 C-5.34 1.66 -4.68 2.32 -4 3 C-3.34 3 -2.68 3 -2 3 C-1.34 3 -0.68 3 0 3 C0 2.01 0 1.02 0 0 Z " fill="#298814" transform="translate(268,455)"/>
<path d="M0 0 C3.28050876 1.04016132 6.40772118 2.17882508 9.5625 3.5625 C12.44942066 4.76975773 14.92626312 5.53428229 18 6 C18.33 5.01 18.66 4.02 19 3 C21.97 3.33 24.94 3.66 28 4 C24.87979946 7.12020054 21.31248987 7.56809661 17 8 C10.72650272 7.56734502 5.85954455 5.98731861 1 2 C0.67 1.34 0.34 0.68 0 0 Z " fill="#2B8A16" transform="translate(170,400)"/>
<path d="M0 0 C0 0.66 0 1.32 0 2 C-1.7634375 2.309375 -1.7634375 2.309375 -3.5625 2.625 C-8.39283025 3.83688001 -11.79898176 6.1941382 -15 10 C-16.03252936 12.70808151 -16.03252936 12.70808151 -16 15 C-16.66 15 -17.32 15 -18 15 C-18.66 18.96 -19.32 22.92 -20 27 C-20.33 27 -20.66 27 -21 27 C-21.60987605 19.43753702 -20.27940503 14.31721695 -16 8 C-11.4306997 2.95191196 -6.93931024 0 0 0 Z " fill="#31841F" transform="translate(316,303)"/>
<path d="M0 0 C4.35988072 -0.09890664 8.71916673 -0.17148376 13.07983398 -0.21972656 C14.56302261 -0.23983759 16.04613199 -0.26713074 17.52905273 -0.30175781 C19.66149435 -0.35030352 21.79288777 -0.37297195 23.92578125 -0.390625 C25.20880127 -0.41157227 26.49182129 -0.43251953 27.8137207 -0.45410156 C31 0 31 0 32.95776367 1.82910156 C34.41611798 4.86674188 33.83475621 6.80010119 33 10 C32.67 10.66 32.34 11.32 32 12 C31.34 12 30.68 12 30 12 C30.33 10.35 30.66 8.7 31 7 C31.66 7 32.32 7 33 7 C33 6.34 33 5.68 33 5 C32.34 5 31.68 5 31 5 C31 4.01 31 3.02 31 2 C20.77 1.67 10.54 1.34 0 1 C0 0.67 0 0.34 0 0 Z " fill="#389D1F" transform="translate(318,199)"/>
<path d="M0 0 C0.33 0.99 0.66 1.98 1 3 C0.01 4.485 0.01 4.485 -1 6 C-1.30066154 8.75417318 -1.50925299 11.42645147 -1.625 14.1875 C-1.66367188 14.93708984 -1.70234375 15.68667969 -1.7421875 16.45898438 C-1.83628216 18.30559199 -1.91922319 20.1527619 -2 22 C-1.01 22.33 -0.02 22.66 1 23 C1.625 24.8125 1.625 24.8125 2 27 C2.185625 27.7425 2.37125 28.485 2.5625 29.25 C2.706875 29.8275 2.85125 30.405 3 31 C-1.44701195 27.16636901 -3.65966406 23.12281216 -4.2890625 17.34765625 C-4.46793443 11.42049079 -3.78135489 7.22894719 -1 2 C-0.67 1.34 -0.34 0.68 0 0 Z " fill="#34841D" transform="translate(167,426)"/>
<path d="M0 0 C-0.9590625 0.433125 -0.9590625 0.433125 -1.9375 0.875 C-4.15206079 1.82823451 -4.15206079 1.82823451 -5 4 C-5.61875 4.061875 -6.2375 4.12375 -6.875 4.1875 C-9.45071525 4.8959257 -9.45071525 4.8959257 -10.75 8.5625 C-11.1625 9.696875 -11.575 10.83125 -12 12 C-13.66666667 12 -15.33333333 12 -17 12 C-15.61613025 6.77204763 -12.24038711 4.05057385 -8 1 C-4.84724122 -0.8125411 -3.48218392 -1.24363712 0 0 Z " fill="#2E8D1A" transform="translate(248,362)"/>
<path d="M0 0 C-3 2 -3 2 -6 2.4375 C-9.2889438 3.05417696 -9.79893416 3.69888572 -12 6 C-13.32 6 -14.64 6 -16 6 C-16 6.66 -16 7.32 -16 8 C-17.32 8.33 -18.64 8.66 -20 9 C-18.48078522 4.74619862 -15.86890976 3.14939431 -12 1 C-7.82179105 -0.50254822 -4.32198219 -1.33501228 0 0 Z " fill="#2D8A18" transform="translate(254,303)"/>
<path d="M0 0 C0 0.66 0 1.32 0 2 C-0.66 2 -1.32 2 -2 2 C-2 2.66 -2 3.32 -2 4 C-3.175625 4.37125 -4.35125 4.7425 -5.5625 5.125 C-11.9321405 7.5037507 -16.35515807 12.16936439 -21 17 C-21.66 16.67 -22.32 16.34 -23 16 C-8.28 0 -8.28 0 0 0 Z " fill="#30881B" transform="translate(230,48)"/>
<path d="M0 0 C0.33 0 0.66 0 1 0 C1.48430685 8.82514703 1.58440563 15.70131021 -4.37890625 22.59375 C-5.53575222 23.78025868 -6.76144208 24.89905962 -8 26 C-8.66 25.67 -9.32 25.34 -10 25 C-9 22 -9 22 -6 20 C-2.37393666 16.95410679 -1.20351772 13.53022289 -0.5859375 8.88671875 C-0.48152344 7.30310547 -0.48152344 7.30310547 -0.375 5.6875 C-0.30023438 4.61886719 -0.22546875 3.55023438 -0.1484375 2.44921875 C-0.09945312 1.64097656 -0.05046875 0.83273437 0 0 Z " fill="#2C8A15" transform="translate(209,434)"/>
<path d="M0 0 C5.56272235 0.67426938 10.11344375 2.83625237 13.78125 7.04296875 C15.24638096 8.99532487 16.65187153 10.96546179 18 13 C17.67 13.66 17.34 14.32 17 15 C16.29875 13.906875 15.5975 12.81375 14.875 11.6875 C12.35365788 8.15762104 10.06034981 6.65728564 6 5 C4 4 2 3 0 2 C0 1.34 0 0.68 0 0 Z " fill="#31811B" transform="translate(323,417)"/>
<path d="M0 0 C0.33 0 0.66 0 1 0 C1 2.64 1 5.28 1 8 C1.99 8 2.98 8 4 8 C3.50384615 12.58942308 3.50384615 12.58942308 0.953125 14.66796875 C0.30859375 15.10753906 -0.3359375 15.54710937 -1 16 C-1.02701408 13.89590361 -1.04640223 11.79170822 -1.0625 9.6875 C-1.07410156 8.51574219 -1.08570313 7.34398437 -1.09765625 6.13671875 C-1 3 -1 3 0 0 Z " fill="#299011" transform="translate(230,374)"/>
<path d="M0 0 C2.46828578 4.93657155 2.20556551 7.73856767 1 13 C-0.6629812 17.4371362 -2.00346527 20.33564351 -6 23 C-6 21.68 -6 20.36 -6 19 C-5.01 19 -4.02 19 -3 19 C-2.01 12.73 -1.02 6.46 0 0 Z " fill="#2C8016" transform="translate(341,320)"/>
<path d="M0 0 C4.69565217 0.91304348 4.69565217 0.91304348 6.75 1.5 C9.74118629 2.16470806 12.69473807 2.34863166 15.75 2.5625 C16.92046875 2.64628906 18.0909375 2.73007812 19.296875 2.81640625 C20.18890625 2.87699219 21.0809375 2.93757813 22 3 C17.19422452 5.66280275 12.76324708 5.67343286 7.515625 4.39453125 C5.27190311 3.69068855 3.12292951 3.01268848 1 2 C0.67 1.34 0.34 0.68 0 0 Z " fill="#2E8518" transform="translate(173,459)"/>
<path d="M0 0 C-1.1875 1.9375 -1.1875 1.9375 -3 4 C-4.65391846 4.39171753 -6.32345271 4.72057545 -8 5 C-8.886875 5.53625 -9.77375 6.0725 -10.6875 6.625 C-11.450625 7.07875 -12.21375 7.5325 -13 8 C-13.66 7.67 -14.32 7.34 -15 7 C-5.39815527 -1.79938509 -5.39815527 -1.79938509 0 0 Z " fill="#2F8D1B" transform="translate(183,418)"/>
<path d="M0 0 C3.13295836 3.13295836 2.93985448 6.69625418 3 11 C2.53933797 15.59199608 1.85330269 18.97101734 -1.125 22.5625 C-1.74375 23.036875 -2.3625 23.51125 -3 24 C-3 21.69 -3 19.38 -3 17 C-2.34 17.33 -1.68 17.66 -1 18 C0.2062252 14.38132441 0.10816918 11.07493749 0.0625 7.3125 C0.05798828 6.61060547 0.05347656 5.90871094 0.04882812 5.18554688 C0.03706927 3.45699462 0.01913454 1.72848635 0 0 Z " fill="#2A8313" transform="translate(340,374)"/>
<path d="M0 0 C1 2 1 2 1 5 C0.01 6.485 0.01 6.485 -1 8 C-1.29452584 10.38677076 -1.4928217 12.78626094 -1.625 15.1875 C-1.69976562 16.45980469 -1.77453125 17.73210937 -1.8515625 19.04296875 C-1.90054687 20.01878906 -1.94953125 20.99460937 -2 22 C-4.79376375 17.0580434 -4.85712601 12.11492137 -3.359375 6.671875 C-1.43963068 1.43963068 -1.43963068 1.43963068 0 0 Z " fill="#2C8219" transform="translate(299,370)"/>
<path d="M0 0 C0.33 0 0.66 0 1 0 C1.06058594 0.86882812 1.12117187 1.73765625 1.18359375 2.6328125 C1.26738281 3.78523438 1.35117188 4.93765625 1.4375 6.125 C1.51871094 7.26195312 1.59992188 8.39890625 1.68359375 9.5703125 C1.97730965 12.7540478 2.43124313 15.85510907 3 19 C2.34 19.33 1.68 19.66 1 20 C-0.68861682 16.32241949 -1.24928104 13.47573354 -1.1875 9.4375 C-1.18105469 8.50808594 -1.17460937 7.57867187 -1.16796875 6.62109375 C-1.01753445 4.27361898 -0.66160428 2.24945456 0 0 Z " fill="#2D8B14" transform="translate(163,317)"/>
<path d="M0 0 C0.99 0 1.98 0 3 0 C1.62380176 5.19897112 -1.66863099 8.08143805 -6 11 C-8.9375 11.875 -8.9375 11.875 -11 12 C-8.74123902 8.4335353 -6.85064385 7.519991 -3 6 C-2.67 5.01 -2.34 4.02 -2 3 C-1.34 3 -0.68 3 0 3 C0 2.01 0 1.02 0 0 Z " fill="#2D8417" transform="translate(204,336)"/>
<path d="M0 0 C0.66 0 1.32 0 2 0 C3.66384061 3.78985917 4.06156716 5.68703358 3.25 9.8125 C2 13 2 13 0 14 C0 9.38 0 4.76 0 0 Z " fill="#308F1E" transform="translate(115,9)"/>
<path d="M0 0 C6.69853073 -0.49618746 12.08402561 0.71212576 18 4 C18.99 5.485 18.99 5.485 20 7 C18.39566191 6.52140759 16.79153584 6.04210442 15.1875 5.5625 C14.29417969 5.29566406 13.40085937 5.02882813 12.48046875 4.75390625 C10.64526945 4.19612127 8.81966274 3.60655425 7 3 C7 2.34 7 1.68 7 1 C4.69 1 2.38 1 0 1 C0 0.67 0 0.34 0 0 Z " fill="#2F871A" transform="translate(315,360)"/>
<path d="M0 0 C4.99464924 0.47568088 8.02785403 1.95160891 12 5 C12.33 5.66 12.66 6.32 13 7 C10.69 7 8.38 7 6 7 C5.62875 6.1028125 5.62875 6.1028125 5.25 5.1875 C3.83629988 2.71352479 2.34944617 1.56629745 0 0 Z " fill="#2B8A16" transform="translate(190,303)"/>
<path d="M0 0 C3.27723056 1.05339554 4.60460094 2.63763259 6.3125 5.5 C7.1478125 7.2325 7.1478125 7.2325 8 9 C7.67 9.66 7.34 10.32 7 11 C6.67 10.01 6.34 9.02 6 8 C5.01 8.33 4.02 8.66 3 9 C2.34 7.68 1.68 6.36 1 5 C0.67 5 0.34 5 0 5 C0 3.35 0 1.7 0 0 Z " fill="#2E8917" transform="translate(201,422)"/>
<path d="M0 0 C-6.50153337 2.77964108 -12.04318645 3.67013755 -19 2 C-19.99 1.34 -20.98 0.68 -22 0 C-20.0509375 0.309375 -20.0509375 0.309375 -18.0625 0.625 C-13.6958581 1.13467114 -10.24012835 0.59821591 -6.04296875 -0.625 C-3.71752578 -1.05184995 -2.22939327 -0.72142164 0 0 Z " fill="#2B8617" transform="translate(331,347)"/>
<path d="M0 0 C0.33 1.32 0.66 2.64 1 4 C0.01 4.495 0.01 4.495 -1 5 C-1 4.34 -1 3.68 -1 3 C-1.66 3 -2.32 3 -3 3 C-3.33 4.32 -3.66 5.64 -4 7 C-6.31 6.34 -8.62 5.68 -11 5 C-11 4.67 -11 4.34 -11 4 C-9.35 4 -7.7 4 -6 4 C-6 3.34 -6 2.68 -6 2 C-3 0 -3 0 0 0 Z " fill="#13620A" transform="translate(124,3)"/>
<path d="M0 0 C0.66 0 1.32 0 2 0 C0.34608232 6.22725067 -1.55759004 11.53962558 -5 17 C-5.93065133 14.39417629 -6.14917407 13.35801776 -5.0625 10.75 C-4.711875 10.1725 -4.36125 9.595 -4 9 C-3.34 9 -2.68 9 -2 9 C-1.34 6.03 -0.68 3.06 0 0 Z " fill="#308219" transform="translate(301,112)"/>
<path d="M0 0 C0.66 0.33 1.32 0.66 2 1 C1.51602818 5.35574636 0.20957142 7.0913259 -3 10 C-3.33 10.66 -3.66 11.32 -4 12 C-4.66 12 -5.32 12 -6 12 C-4.68139111 7.38486888 -2.78644563 3.90102388 0 0 Z " fill="#33871E" transform="translate(206,65)"/>
<path d="M0 0 C1.32 0 2.64 0 4 0 C4.33 1.32 4.66 2.64 5 4 C7.97 4.495 7.97 4.495 11 5 C11 5.99 11 6.98 11 8 C5.33289301 6.68206814 3.33562767 4.51290803 0 0 Z " fill="#297F19" transform="translate(233,455)"/>
<path d="M0 0 C0.66 0.33 1.32 0.66 2 1 C-0.38179263 4.74281699 -2.74475735 7.97727468 -6 11 C-6.66 10.67 -7.32 10.34 -8 10 C-7.34 9.236875 -6.68 8.47375 -6 7.6875 C-3.70149462 5.15722061 -3.70149462 5.15722061 -4 2 C-2.125 0.9375 -2.125 0.9375 0 0 Z " fill="#2C891A" transform="translate(272,393)"/>
<path d="M0 0 C4.14277059 4.83323235 6.36937261 8.53597935 6 15 C4 11.25 4 11.25 4 9 C3.01 8.67 2.02 8.34 1 8 C1 6.68 1 5.36 1 4 C0.34 3.67 -0.32 3.34 -1 3 C-0.67 2.01 -0.34 1.02 0 0 Z " fill="#2E8B1A" transform="translate(203,310)"/>
<path d="M0 0 C0.66 0.99 1.32 1.98 2 3 C2.99 3.66 3.98 4.32 5 5 C5.66666667 6.33333333 6.33333333 7.66666667 7 9 C8.29470975 10.37086915 9.62150897 11.71340837 11 13 C5.80644539 11.62523555 2.99572509 8.25658407 0 4 C-0.33 3.01 -0.66 2.02 -1 1 C-0.67 0.67 -0.34 0.34 0 0 Z " fill="#2E8418" transform="translate(298,392)"/>
<path d="M0 0 C5.86181863 0.40426335 9.2823519 1.2028686 14 5 C14.33 5.66 14.66 6.32 15 7 C12.57467761 6.56690672 11.13811837 6.10954216 9.1875 4.5625 C6.31063474 2.50759625 3.40376526 1.85094131 0 1 C0 0.67 0 0.34 0 0 Z " fill="#30881E" transform="translate(321,303)"/>
<path d="M0 0 C0 1.32 0 2.64 0 4 C-1.98 4.33 -3.96 4.66 -6 5 C-6.99 3.68 -7.98 2.36 -9 1 C-6.04335481 -0.4783226 -3.25770263 -0.06032783 0 0 Z " fill="#27940D" transform="translate(323,417)"/>
<path d="M0 0 C1.134375 0.020625 2.26875 0.04125 3.4375 0.0625 C-0.8452388 2.9176592 -3.70708058 3.17922494 -8.75 3.125 C-10.38001953 3.11146484 -10.38001953 3.11146484 -12.04296875 3.09765625 C-12.87441406 3.08605469 -13.70585937 3.07445312 -14.5625 3.0625 C-14.5625 2.7325 -14.5625 2.4025 -14.5625 2.0625 C-13.85222656 2.00191406 -13.14195312 1.94132812 -12.41015625 1.87890625 C-11.03150391 1.75322266 -11.03150391 1.75322266 -9.625 1.625 C-8.70847656 1.54378906 -7.79195313 1.46257812 -6.84765625 1.37890625 C-3.46322053 0.91029207 -3.92605044 0.06887808 0 0 Z " fill="#2B8716" transform="translate(327.5625,403.9375)"/>
<path d="M0 0 C0.66 0 1.32 0 2 0 C2.598125 0.763125 3.19625 1.52625 3.8125 2.3125 C6.02938148 5.03609725 8.00913442 6.25532841 11 8 C11 8.66 11 9.32 11 10 C6.56156561 8.60506348 4.0565036 6.48101799 1 3 C0.67 2.01 0.34 1.02 0 0 Z " fill="#32851A" transform="translate(165,337)"/>
<path d="M0 0 C0.33 0.66 0.66 1.32 1 2 C2.32 2 3.64 2 5 2 C5 3.32 5 4.64 5 6 C2.525 5.01 2.525 5.01 0 4 C-0.99 5.32 -1.98 6.64 -3 8 C-2.45276317 4.62537285 -1.9451 2.91765 0 0 Z " fill="#2C8F13" transform="translate(233,312)"/>
<path d="M0 0 C0.625 1.875 0.625 1.875 1 4 C0.34 4.66 -0.32 5.32 -1 6 C-1.99 6 -2.98 6 -4 6 C-4.99 7.485 -4.99 7.485 -6 9 C-6.66 9 -7.32 9 -8 9 C-7.00217242 5.64367085 -6.38142405 4.26048472 -3.4375 2.25 C-2.2309375 1.63125 -2.2309375 1.63125 -1 1 C-0.67 0.67 -0.34 0.34 0 0 Z " fill="#2B9015" transform="translate(239,422)"/>
<path d="M0 0 C0 3 0 3 -2.3125 5.6875 C-5 8 -5 8 -8 8 C-8 7.34 -8 6.68 -8 6 C-7.01 6 -6.02 6 -5 6 C-4.67 5.01 -4.34 4.02 -4 3 C-1.9375 1.3125 -1.9375 1.3125 0 0 Z " fill="#31851C" transform="translate(353,263)"/>
<path d="M0 0 C2.0625 1.625 2.0625 1.625 4 4 C3.81623488 7.06275204 3.36973455 9.2605309 2 12 C1.34 12 0.68 12 0 12 C0.33 10.35 0.66 8.7 1 7 C1.66 7 2.32 7 3 7 C3 6.34 3 5.68 3 5 C2.34 5 1.68 5 1 5 C0.67 3.35 0.34 1.7 0 0 Z " fill="#3D8928" transform="translate(348,199)"/>
<path d="M0 0 C0.33 0.66 0.66 1.32 1 2 C-4.0022779 9.66742597 -4.0022779 9.66742597 -8 11 C-7.34 9.35 -6.68 7.7 -6 6 C-5.01 6 -4.02 6 -3 6 C-2.690625 5.195625 -2.38125 4.39125 -2.0625 3.5625 C-1 1 -1 1 0 0 Z " fill="#2C881C" transform="translate(207,393)"/>
<path d="M0 0 C1.32 0.33 2.64 0.66 4 1 C4 1.99 4 2.98 4 4 C4.99 4 5.98 4 7 4 C7 5.32 7 6.64 7 8 C3.70851757 6.86500606 3.0040131 6.00716624 1.25 2.875 C0.8375 1.92625 0.425 0.9775 0 0 Z " fill="#2C8912" transform="translate(231,394)"/>
<path d="M0 0 C-0.33 0.66 -0.66 1.32 -1 2 C-4.0625 2.625 -4.0625 2.625 -7 3 C-7 3.66 -7 4.32 -7 5 C-8.32 4.67 -9.64 4.34 -11 4 C-7.20307814 1.17438373 -4.81430721 -0.56638908 0 0 Z " fill="#2F831B" transform="translate(315,361)"/>
<path d="M0 0 C0.33 0.66 0.66 1.32 1 2 C-1.17508418 6.69360269 -1.17508418 6.69360269 -4.1875 7.8125 C-4.785625 7.874375 -5.38375 7.93625 -6 8 C-6 7.34 -6 6.68 -6 6 C-5.34 6 -4.68 6 -4 6 C-3.896875 5.38125 -3.79375 4.7625 -3.6875 4.125 C-3 2 -3 2 0 0 Z " fill="#2F851B" transform="translate(384,489)"/>
<path d="M0 0 C0.33 0.99 0.66 1.98 1 3 C1.99 3.33 2.98 3.66 4 4 C4.625 5.8125 4.625 5.8125 5 8 C5.185625 8.7425 5.37125 9.485 5.5625 10.25 C5.7790625 11.11625 5.7790625 11.11625 6 12 C3.34930567 9.52601863 1.28384156 7.42357749 0 4 C0 2.68 0 1.36 0 0 Z " fill="#2B8715" transform="translate(164,445)"/>
<path d="M0 0 C3.53586014 3.17320782 5.58578031 5.16743695 6 10 C2.46413986 6.82679218 0.41421969 4.83256305 0 0 Z " fill="#30861F" transform="translate(203,367)"/>
<path d="M0 0 C3 1 3 1 4.16796875 2.84765625 C4.50441406 3.57855469 4.84085937 4.30945313 5.1875 5.0625 C5.53167969 5.79597656 5.87585938 6.52945312 6.23046875 7.28515625 C6.48441406 7.85105469 6.73835938 8.41695313 7 9 C2.97449681 7.6581656 2.11714364 5.5772427 0 2 C0 1.34 0 0.68 0 0 Z " fill="#2B8517" transform="translate(297,449)"/>
<path d="M0 0 C3.09592835 3.5087188 4.74194623 6.49197399 6 11 C2.78097174 8.85398116 1.70544246 7.41088492 0 4 C0 2.68 0 1.36 0 0 Z " fill="#307E17" transform="translate(295,68)"/>
<path d="M0 0 C4.43090471 1.20842856 6.98112756 2.51668565 10 6 C6.7 5.01 3.4 4.02 0 3 C0 2.01 0 1.02 0 0 Z " fill="#2F841C" transform="translate(272,49)"/>
<path d="M0 0 C-3.83325617 2.70582788 -6.32538149 3.32613618 -11 3 C-7.18178484 -0.02823961 -4.81391924 -1.49397494 0 0 Z " fill="#31871E" transform="translate(316,418)"/>
<path d="M0 0 C1.48199902 0.44909061 2.96055236 0.90956564 4.4375 1.375 C5.26121094 1.63023437 6.08492187 1.88546875 6.93359375 2.1484375 C9 3 9 3 10 5 C2.90178571 3.25892857 2.90178571 3.25892857 0 0 Z " fill="#308819" transform="translate(191,417)"/>
<path d="M0 0 C2.31 0.33 4.62 0.66 7 1 C7.33 1.99 7.66 2.98 8 4 C4.31245243 3.50168276 2.39509338 2.89932357 0 0 Z " fill="#2F8B18" transform="translate(238,402)"/>
<path d="" fill="#FFFFFF" transform="translate(0,0)"/>
<path d="" fill="#FFFFFF" transform="translate(0,0)"/>
<path d="" fill="#FFFFFF" transform="translate(0,0)"/>
<path d="" fill="#FFFFFF" transform="translate(0,0)"/>
<path d="" fill="#FFFFFF" transform="translate(0,0)"/>
<path d="" fill="#FFFFFF" transform="translate(0,0)"/>
<path d="" fill="#FFFFFF" transform="translate(0,0)"/>
<path d="" fill="#FFFFFF" transform="translate(0,0)"/>
<path d="" fill="#FFFFFF" transform="translate(0,0)"/>
<path d="" fill="#FFFFFF" transform="translate(0,0)"/>
<path d="" fill="#FFFFFF" transform="translate(0,0)"/>
<path d="" fill="#FFFFFF" transform="translate(0,0)"/>
<path d="" fill="#FFFFFF" transform="translate(0,0)"/>
<path d="" fill="#FFFFFF" transform="translate(0,0)"/>
<path d="" fill="#FFFFFF" transform="translate(0,0)"/>
<path d="" fill="#FFFFFF" transform="translate(0,0)"/>
<path d="" fill="#FFFFFF" transform="translate(0,0)"/>
<path d="" fill="#FFFFFF" transform="translate(0,0)"/>
<path d="" fill="#FFFFFF" transform="translate(0,0)"/>
<path d="" fill="#FFFFFF" transform="translate(0,0)"/>
<path d="" fill="#FFFFFF" transform="translate(0,0)"/>
<path d="" fill="#FFFEFF" transform="translate(0,0)"/>
<path d="" fill="#FFFFFF" transform="translate(0,0)"/>
<path d="" fill="#FFFFFF" transform="translate(0,0)"/>
<path d="" fill="#FFFFFF" transform="translate(0,0)"/>
<path d="" fill="#FFFFFF" transform="translate(0,0)"/>
<path d="" fill="#FFFFFF" transform="translate(0,0)"/>
<path d="" fill="#FFFFFF" transform="translate(0,0)"/>
<path d="" fill="#FFFFFF" transform="translate(0,0)"/>
<path d="" fill="#FFFFFF" transform="translate(0,0)"/>
<path d="" fill="#FFFFFF" transform="translate(0,0)"/>
<path d="" fill="#FFFFFF" transform="translate(0,0)"/>
<path d="" fill="#FFFFFF" transform="translate(0,0)"/>
<path d="" fill="#FFFFFF" transform="translate(0,0)"/>
<path d="" fill="#FFFFFF" transform="translate(0,0)"/>
<path d="" fill="#FFFFFF" transform="translate(0,0)"/>
<path d="" fill="#FFFFFF" transform="translate(0,0)"/>
<path d="" fill="#FFFFFF" transform="translate(0,0)"/>
<path d="" fill="#FFFFFF" transform="translate(0,0)"/>
<path d="" fill="#FFFFFF" transform="translate(0,0)"/>
<path d="" fill="#FFFFFF" transform="translate(0,0)"/>
<path d="" fill="#FFFFFF" transform="translate(0,0)"/>
<path d="" fill="#FFFFFF" transform="translate(0,0)"/>
<path d="" fill="#FFFFFF" transform="translate(0,0)"/>
<path d="" fill="#FFFFFF" transform="translate(0,0)"/>
<path d="" fill="#FFFFFF" transform="translate(0,0)"/>
<path d="" fill="#FFFFFF" transform="translate(0,0)"/>
<path d="" fill="#FFFFFF" transform="translate(0,0)"/>
<path d="" fill="#FFFFFF" transform="translate(0,0)"/>
<path d="" fill="#FFFFFF" transform="translate(0,0)"/>
<path d="" fill="#FFFFFF" transform="translate(0,0)"/>
<path d="" fill="#FFFFFF" transform="translate(0,0)"/>
</svg>
